<?xml version="1.0" standalone="no"?>
<svg xmlns:xlink="http://www.w3.org/1999/xlink" id="wave" style="transform:rotate(180deg); transition: 0.3s" viewBox="0 0 1440 220" version="1.1" xmlns="http://www.w3.org/2000/svg"><defs><linearGradient id="sw-gradient-0" x1="0" x2="0" y1="1" y2="0"><stop stop-color="rgba(255, 172, 75, 1)" offset="0%"/><stop stop-color="rgba(255, 179, 11, 1)" offset="100%"/></linearGradient></defs><path style="transform:translate(0, 0px); opacity:1" fill="url(#sw-gradient-0)" d="M0,110L80,124.7C160,139,320,169,480,154C640,139,800,81,960,80.7C1120,81,1280,139,1440,165C1600,191,1760,183,1920,179.7C2080,176,2240,176,2400,161.3C2560,147,2720,117,2880,102.7C3040,88,3200,88,3360,80.7C3520,73,3680,59,3840,44C4000,29,4160,15,4320,18.3C4480,22,4640,44,4800,62.3C4960,81,5120,95,5280,95.3C5440,95,5600,81,5760,62.3C5920,44,6080,22,6240,22C6400,22,6560,44,6720,77C6880,110,7040,154,7200,168.7C7360,183,7520,169,7680,165C7840,161,8000,169,8160,168.7C8320,169,8480,161,8640,165C8800,169,8960,183,9120,161.3C9280,139,9440,81,9600,80.7C9760,81,9920,139,10080,143C10240,147,10400,95,10560,80.7C10720,66,10880,88,11040,95.3C11200,103,11360,95,11440,91.7L11520,88L11520,220L11440,220C11360,220,11200,220,11040,220C10880,220,10720,220,10560,220C10400,220,10240,220,10080,220C9920,220,9760,220,9600,220C9440,220,9280,220,9120,220C8960,220,8800,220,8640,220C8480,220,8320,220,8160,220C8000,220,7840,220,7680,220C7520,220,7360,220,7200,220C7040,220,6880,220,6720,220C6560,220,6400,220,6240,220C6080,220,5920,220,5760,220C5600,220,5440,220,5280,220C5120,220,4960,220,4800,220C4640,220,4480,220,4320,220C4160,220,4000,220,3840,220C3680,220,3520,220,3360,220C3200,220,3040,220,2880,220C2720,220,2560,220,2400,220C2240,220,2080,220,1920,220C1760,220,1600,220,1440,220C1280,220,1120,220,960,220C800,220,640,220,480,220C320,220,160,220,80,220L0,220Z"/></svg>